<?xml version="1.0" ?><svg xmlns="http://www.w3.org/2000/svg" xmlns:xlink="http://www.w3.org/1999/xlink" version="1.1" viewBox="0 0 512 512" style="enable-background:new 0 0 512 512;" xml:space="preserve"><g id="_x31_5_x2C__Diary_x2C__Education_x2C__Writing_x2C__Love_and_Romance_x2C__Romantic"><g><path d="M501,146h-10V41c0-22.056-17.944-40-40-40H86C63.944,1,46,18.944,46,41H36C16.701,41,1,56.701,1,76s15.701,35,35,35h10v20    H36c-19.299,0-35,15.701-35,35s15.701,35,35,35h10v20H36c-19.299,0-35,15.701-35,35s15.701,35,35,35h10v20H36    c-19.299,0-35,15.701-35,35s15.701,35,35,35h10c0.052,74.406-0.114,69.909,0.123,71.49C44.109,484.486,69.591,511,101,511h330    c22.056,0,40-17.944,40-40v-55.381c11.944-6.927,20-19.846,20-34.619V256h10c5.522,0,10-4.477,10-10v-90    C511,150.477,506.522,146,501,146z M471,41v105h-40V21h20C462.028,21,471,29.972,471,41z M21,76c0-8.271,6.729-15,15-15h40    c8.271,0,15,6.729,15,15s-6.729,15-15,15H36C27.729,91,21,84.271,21,76z M21,166c0-8.271,6.729-15,15-15h40    c8.271,0,15,6.729,15,15s-6.729,15-15,15H36C27.729,181,21,174.271,21,166z M21,256c0-8.271,6.729-15,15-15h40    c8.271,0,15,6.729,15,15s-6.729,15-15,15H36C27.729,271,21,264.271,21,256z M21,346c0-8.271,6.729-15,15-15h40    c8.271,0,15,6.729,15,15s-6.729,15-15,15H36C27.729,361,21,354.271,21,346z M76,381c19.299,0,35-15.701,35-35s-15.701-35-35-35H66    v-20h10c19.299,0,35-15.701,35-35s-15.701-35-35-35H66v-20h10c19.299,0,35-15.701,35-35s-15.701-35-35-35H66v-20h10    c19.299,0,35-15.701,35-35S95.299,41,76,41H66c0-11.028,8.972-20,20-20h325v128.781c-20.464,8.019-35,27.947-35,51.219    s14.536,43.2,35,51.219v148.736c-43.392,0.03-131.237,0.16-310,0.044c-13.303,0-25.494,4.71-35,12.556V381H76z M451,445.14H101    c-5.522,0-10,4.477-10,10s4.478,10,10,10h350V471c0,11.028-8.972,20-20,20H101c-19.299,0-35-15.701-35-35    c0-19.347,15.656-35,35-35c15.052,0,332.867,0,350,0V445.14z M471,381c0,11.028-8.972,20-20,20    c-16.149-0.054-19.897-0.049-20-0.049V256h40V381z M491,236h-60c-19.299,0-35-15.701-35-35s15.701-35,35-35h60V236z"/><path d="M453.5,191h-20c-5.522,0-10,4.477-10,10s4.478,10,10,10h20c5.522,0,10-4.477,10-10S459.022,191,453.5,191z"/><path d="M248.93,298.071c3.906,3.905,10.237,3.905,14.143,0c11.319-11.319,66.132-66.132,78.379-78.379    c25.569-25.591,25.55-66.947-0.003-92.524c-23.268-23.266-59.839-25.309-85.443-6.135c-25.426-19.094-61.975-17.342-85.452,6.137    c-25.498,25.509-25.498,67.015,0.001,92.526L248.93,298.071z"/><path d="M341,321H171c-5.522,0-10,4.477-10,10s4.478,10,10,10h170c5.522,0,10-4.477,10-10S346.522,321,341,321z"/><path d="M306,361H206c-5.522,0-10,4.477-10,10s4.478,10,10,10h100c5.522,0,10-4.477,10-10S311.522,361,306,361z"/></g></g><g id="Layer_1"/></svg>